<svg width="354" height="76" viewBox="0 0 354 76" fill="none" xmlns="http://www.w3.org/2000/svg">
<g clip-path="url(#clip0_298_54)">
<path d="M85.0002 35.0299V52H79.6244V9.6909H93.34C95.2385 9.72964 97.0304 10.0299 98.7158 10.5917C100.421 11.1535 101.912 11.9671 103.191 13.0326C104.469 14.0981 105.477 15.4154 106.213 16.9846C106.968 18.5537 107.346 20.3553 107.346 22.3894C107.346 24.4235 106.968 26.2252 106.213 27.7943C105.477 29.3441 104.469 30.6517 103.191 31.7172C101.912 32.7827 100.421 33.5963 98.7158 34.1581C97.0304 34.7199 95.2385 35.0105 93.34 35.0299H85.0002ZM85.0002 30.613H93.34C94.5798 30.5936 95.7228 30.3999 96.7689 30.0318C97.815 29.6444 98.7255 29.1019 99.5004 28.4045C100.275 27.7071 100.876 26.8644 101.302 25.8765C101.748 24.8691 101.97 23.7261 101.97 22.4476C101.97 21.169 101.748 20.0163 101.302 18.9896C100.876 17.9629 100.285 17.0911 99.5294 16.3743C98.7545 15.6576 97.8343 15.1055 96.7689 14.718C95.7228 14.3306 94.5798 14.1272 93.34 14.1078H85.0002V30.613ZM135.475 19.9776C136.463 19.9776 137.489 20.0454 138.555 20.181C139.64 20.3166 140.453 20.5006 140.996 20.7331L140.269 25.9927C139.223 25.7602 138.226 25.5956 137.276 25.4987C136.346 25.3825 135.368 25.3243 134.341 25.3243C133.024 25.3243 131.833 25.489 130.767 25.8183C129.702 26.1283 128.772 26.5932 127.978 27.2131C127.261 27.7556 126.631 28.4239 126.089 29.2182C125.566 29.9931 125.13 30.8648 124.781 31.8334V52H119.376V20.5588H124.491L124.723 24.7722L124.752 25.5568C126.031 23.8327 127.561 22.4766 129.343 21.4886C131.145 20.4813 133.189 19.9776 135.475 19.9776ZM149.103 35.9888C149.103 33.7222 149.432 31.6203 150.091 29.6831C150.75 27.7265 151.699 26.0314 152.939 24.5979C154.159 23.1643 155.651 22.0407 157.414 21.2271C159.177 20.3941 161.162 19.9776 163.371 19.9776C165.599 19.9776 167.594 20.3941 169.357 21.2271C171.139 22.0407 172.65 23.1643 173.89 24.5979C175.11 26.0314 176.05 27.7265 176.709 29.6831C177.367 31.6203 177.697 33.7222 177.697 35.9888V36.6281C177.697 38.8946 177.367 40.9965 176.709 42.9338C176.05 44.871 175.11 46.5564 173.89 47.9899C172.65 49.4235 171.149 50.5471 169.386 51.3607C167.623 52.1744 165.637 52.5812 163.429 52.5812C161.201 52.5812 159.196 52.1744 157.414 51.3607C155.651 50.5471 154.159 49.4235 152.939 47.9899C151.699 46.5564 150.75 44.871 150.091 42.9338C149.432 40.9965 149.103 38.8946 149.103 36.6281V35.9888ZM154.479 36.6281C154.479 38.1779 154.663 39.6598 155.031 41.074C155.399 42.4688 155.961 43.699 156.716 44.7644C157.453 45.8299 158.382 46.6726 159.506 47.2925C160.63 47.9124 161.937 48.2224 163.429 48.2224C164.901 48.2224 166.19 47.9124 167.294 47.2925C168.417 46.6726 169.357 45.8299 170.112 44.7644C170.849 43.699 171.401 42.4688 171.769 41.074C172.137 39.6598 172.321 38.1779 172.321 36.6281V35.9888C172.321 34.4584 172.127 32.9958 171.74 31.601C171.372 30.1868 170.819 28.947 170.083 27.8815C169.328 26.816 168.388 25.9733 167.265 25.3534C166.16 24.7141 164.863 24.3945 163.371 24.3945C161.879 24.3945 160.581 24.7141 159.477 25.3534C158.373 25.9733 157.453 26.816 156.716 27.8815C155.961 28.947 155.399 30.1868 155.031 31.601C154.663 32.9958 154.479 34.4584 154.479 35.9888V36.6281Z" fill="#393E46"/>
<path d="M192.429 47.4378H213.119V52H187.053V9.6909H192.429V47.4378ZM222.941 20.5588H239.01V47.3506H249.268V52H222.941V47.3506H233.634V25.2372H222.941V20.5588ZM232.937 12.3062C232.937 11.8412 233.005 11.4053 233.14 10.9985C233.295 10.5917 233.528 10.243 233.838 9.95242C234.089 9.70058 234.409 9.50686 234.797 9.37125C235.203 9.21627 235.659 9.13879 236.162 9.13879C236.666 9.13879 237.111 9.21627 237.499 9.37125C237.886 9.50686 238.206 9.70058 238.458 9.95242C238.768 10.2236 239 10.5626 239.155 10.9695C239.31 11.3763 239.388 11.8218 239.388 12.3062C239.388 13.1779 239.117 13.9044 238.574 14.4855C238.032 15.0667 237.228 15.3573 236.162 15.3573C235.077 15.3573 234.264 15.0667 233.721 14.4855C233.198 13.9044 232.937 13.1779 232.937 12.3062ZM284.486 36.6281C284.486 38.0035 284.38 39.3305 284.167 40.6091C283.973 41.8683 283.683 43.05 283.295 44.1542C282.772 45.6071 282.084 46.9148 281.232 48.0771C280.399 49.2201 279.392 50.1693 278.21 50.9248C277.357 51.4479 276.418 51.8547 275.391 52.1453C274.384 52.4359 273.289 52.5812 272.108 52.5812C270.752 52.5812 269.512 52.4165 268.388 52.0872C267.284 51.7578 266.286 51.2832 265.395 50.6633C264.969 50.3534 264.562 50.0143 264.175 49.6463C263.787 49.2782 263.419 48.8714 263.07 48.4258L262.809 52H257.869V7.36622H263.245V23.9295C263.69 23.3677 264.184 22.8641 264.727 22.4185C265.269 21.9536 265.85 21.5564 266.47 21.2271C267.245 20.8203 268.097 20.5103 269.027 20.2972C269.957 20.0841 270.965 19.9776 272.049 19.9776C273.406 19.9776 274.655 20.1616 275.798 20.5297C276.941 20.8978 277.977 21.4111 278.907 22.0698C279.74 22.6897 280.486 23.4452 281.145 24.3364C281.803 25.2081 282.385 26.1864 282.888 27.2713C283.411 28.4917 283.808 29.8478 284.08 31.3394C284.351 32.8117 284.486 34.3712 284.486 36.0179V36.6281ZM279.111 36.0179C279.111 35.0299 279.043 34.0709 278.907 33.1411C278.791 32.1918 278.607 31.3007 278.355 30.4677C278.006 29.441 277.551 28.5014 276.989 27.649C276.428 26.7966 275.74 26.1283 274.926 25.644C274.364 25.2953 273.735 25.0241 273.037 24.8303C272.34 24.6366 271.565 24.5398 270.713 24.5398C269.783 24.5398 268.931 24.6657 268.156 24.9175C267.381 25.15 266.693 25.4793 266.092 25.9055C265.473 26.3511 264.92 26.8741 264.436 27.4747C263.971 28.0558 263.574 28.6951 263.245 29.3925V43.1372C263.593 43.8346 264 44.4835 264.465 45.0841C264.949 45.6653 265.502 46.1786 266.122 46.6242C266.741 47.0697 267.439 47.4185 268.214 47.6703C268.989 47.9028 269.841 48.019 270.771 48.019C271.662 48.019 272.476 47.9124 273.212 47.6993C273.948 47.4669 274.607 47.1376 275.188 46.7114C275.963 46.1689 276.612 45.4812 277.135 44.6482C277.658 43.8152 278.074 42.8853 278.384 41.8586C278.636 41.0837 278.82 40.2507 278.936 39.3596C279.053 38.4684 279.111 37.5579 279.111 36.6281V36.0179ZM314.184 19.9776C315.172 19.9776 316.199 20.0454 317.264 20.181C318.349 20.3166 319.163 20.5006 319.705 20.7331L318.979 25.9927C317.933 25.7602 316.935 25.5956 315.986 25.4987C315.056 25.3825 314.078 25.3243 313.051 25.3243C311.734 25.3243 310.542 25.489 309.477 25.8183C308.411 26.1283 307.481 26.5932 306.687 27.2131C305.97 27.7556 305.341 28.4239 304.798 29.2182C304.275 29.9931 303.839 30.8648 303.491 31.8334V52H298.086V20.5588H303.2L303.433 24.7722L303.462 25.5568C304.74 23.8327 306.271 22.4766 308.053 21.4886C309.854 20.4813 311.898 19.9776 314.184 19.9776ZM349.984 52C349.771 51.5932 349.597 51.0895 349.461 50.489C349.345 49.869 349.258 49.2298 349.2 48.5711C348.657 49.1135 348.047 49.6269 347.369 50.1112C346.71 50.5955 345.984 51.0217 345.19 51.3898C344.376 51.7578 343.514 52.0484 342.603 52.2615C341.693 52.4746 340.724 52.5812 339.698 52.5812C338.031 52.5812 336.52 52.339 335.164 51.8547C333.828 51.3704 332.694 50.7117 331.765 49.8787C330.815 49.0651 330.079 48.0965 329.556 46.9729C329.052 45.8299 328.801 44.5998 328.801 43.2825C328.801 41.5583 329.14 40.0473 329.818 38.7493C330.515 37.4514 331.493 36.3666 332.753 35.4948C334.012 34.6424 335.523 34.0031 337.286 33.5769C339.068 33.1508 341.054 32.9377 343.243 32.9377H349.112V30.4677C349.112 29.5184 348.938 28.6661 348.589 27.9105C348.241 27.155 347.747 26.5061 347.107 25.9636C346.468 25.4406 345.684 25.0338 344.754 24.7432C343.843 24.4526 342.816 24.3073 341.673 24.3073C340.608 24.3073 339.649 24.4429 338.797 24.7141C337.964 24.9853 337.257 25.3437 336.675 25.7893C336.094 26.2348 335.639 26.7676 335.31 27.3875C335 27.988 334.845 28.6176 334.845 29.2763H329.44C329.459 28.1333 329.75 27.0097 330.312 25.9055C330.893 24.8013 331.726 23.8036 332.811 22.9125C333.876 22.0407 335.174 21.3336 336.704 20.7912C338.254 20.2488 340.007 19.9776 341.964 19.9776C343.746 19.9776 345.403 20.2004 346.933 20.6459C348.463 21.0721 349.79 21.7211 350.914 22.5928C352.018 23.484 352.89 24.5882 353.529 25.9055C354.169 27.2228 354.488 28.7629 354.488 30.5258V45.1422C354.488 46.1883 354.585 47.3022 354.779 48.4839C354.973 49.6463 355.244 50.6633 355.592 51.5351V52H349.984ZM340.482 47.9028C341.528 47.9028 342.506 47.7672 343.417 47.4959C344.327 47.2247 345.16 46.8663 345.916 46.4208C346.652 45.9752 347.291 45.4715 347.834 44.9097C348.376 44.3286 348.802 43.728 349.112 43.1081V36.7443H344.114C342.255 36.7443 340.627 36.909 339.233 37.2383C337.857 37.5483 336.763 38.0326 335.949 38.6912C335.368 39.1562 334.922 39.7083 334.612 40.3476C334.322 40.9868 334.176 41.7133 334.176 42.5269C334.176 43.3018 334.302 44.0186 334.554 44.6773C334.825 45.3359 335.223 45.8977 335.746 46.3627C336.269 46.847 336.927 47.2247 337.722 47.4959C338.516 47.7672 339.436 47.9028 340.482 47.9028Z" fill="#00ADB5"/>
<path d="M0 0H52V52H0V0Z" fill="#393E46"/>
<path d="M0 23.4816L26 0V52L0 75.4766V23.4816Z" fill="#00ADB5"/>
</g>
<defs>
<clipPath id="clip0_298_54">
<rect width="354" height="76" fill="white"/>
</clipPath>
</defs>
</svg>
