<svg width="1333" height="263" viewBox="0 0 1333 263" fill="none" xmlns="http://www.w3.org/2000/svg">
<g clip-path="url(#clip0_295_24)">
<path d="M301.02 137.413V201.004H280.876V42.462H332.271C339.385 42.6071 346.1 43.7323 352.416 45.8375C358.804 47.9427 364.394 50.9916 369.185 54.9842C373.976 58.9767 377.751 63.913 380.509 69.793C383.34 75.673 384.756 82.4241 384.756 90.0463C384.756 97.6685 383.34 104.42 380.509 110.3C377.751 116.107 373.976 121.007 369.185 125C364.394 128.992 358.804 132.041 352.416 134.146C346.1 136.251 339.385 137.34 332.271 137.413H301.02ZM301.02 120.862H332.271C336.917 120.789 341.2 120.063 345.12 118.684C349.04 117.232 352.452 115.2 355.356 112.586C358.259 109.973 360.51 106.815 362.107 103.113C363.776 99.3382 364.611 95.0552 364.611 90.2641C364.611 85.473 363.776 81.1537 362.107 77.3063C360.51 73.4589 358.296 70.1923 355.465 67.5064C352.561 64.8204 349.113 62.7516 345.12 61.2997C341.2 59.8479 336.917 59.0856 332.271 59.013H301.02V120.862ZM490.16 81.0086C493.862 81.0086 497.71 81.2626 501.702 81.7708C505.767 82.2789 508.816 82.9686 510.849 83.8397L508.127 103.549C504.207 102.677 500.468 102.06 496.911 101.697C493.427 101.262 489.761 101.044 485.913 101.044C480.977 101.044 476.513 101.661 472.52 102.895C468.527 104.057 465.043 105.799 462.067 108.122C459.381 110.154 457.021 112.659 454.989 115.635C453.029 118.539 451.396 121.806 450.089 125.435V201.004H429.836V83.1863H449L449.871 98.9752L449.98 101.915C454.771 95.4545 460.506 90.373 467.184 86.6708C473.936 82.896 481.594 81.0086 490.16 81.0086ZM541.229 141.006C541.229 132.513 542.463 124.637 544.931 117.377C547.399 110.046 550.956 103.694 555.602 98.3219C560.175 92.95 565.765 88.7397 572.371 85.6908C578.977 82.5693 586.418 81.0086 594.693 81.0086C603.041 81.0086 610.518 82.5693 617.124 85.6908C623.803 88.7397 629.465 92.95 634.111 98.3219C638.684 103.694 642.205 110.046 644.673 117.377C647.141 124.637 648.375 132.513 648.375 141.006V143.402C648.375 151.895 647.141 159.771 644.673 167.031C642.205 174.29 638.684 180.605 634.111 185.977C629.465 191.349 623.839 195.559 617.233 198.608C610.627 201.657 603.186 203.182 594.911 203.182C586.563 203.182 579.049 201.657 572.371 198.608C565.765 195.559 560.175 191.349 555.602 185.977C550.956 180.605 547.399 174.29 544.931 167.031C542.463 159.771 541.229 151.895 541.229 143.402V141.006ZM561.373 143.402C561.373 149.209 562.063 154.763 563.442 160.062C564.821 165.288 566.926 169.898 569.758 173.891C572.516 177.883 576.001 181.041 580.211 183.364C584.421 185.687 589.321 186.848 594.911 186.848C600.428 186.848 605.255 185.687 609.393 183.364C613.603 181.041 617.124 177.883 619.955 173.891C622.714 169.898 624.783 165.288 626.162 160.062C627.541 154.763 628.231 149.209 628.231 143.402V141.006C628.231 135.271 627.505 129.791 626.053 124.564C624.674 119.265 622.605 114.619 619.846 110.626C617.015 106.634 613.495 103.476 609.284 101.153C605.146 98.7574 600.283 97.5596 594.693 97.5596C589.103 97.5596 584.24 98.7574 580.102 101.153C575.964 103.476 572.516 106.634 569.758 110.626C566.926 114.619 564.821 119.265 563.442 124.564C562.063 129.791 561.373 135.271 561.373 141.006V143.402Z" fill="#393E46"/>
<path d="M703.582 183.908H781.111V201.004H683.437V42.462H703.582V183.908ZM817.915 83.1863H878.13V183.582H916.568V201.004H817.915V183.582H857.986V100.717H817.915V83.1863ZM855.373 52.2619C855.373 50.5197 855.627 48.8864 856.135 47.3619C856.716 45.8375 857.587 44.5308 858.748 43.442C859.692 42.4983 860.89 41.7723 862.342 41.2642C863.866 40.6834 865.572 40.3931 867.459 40.3931C869.347 40.3931 871.016 40.6834 872.468 41.2642C873.92 41.7723 875.118 42.4983 876.062 43.442C877.223 44.4583 878.094 45.7286 878.675 47.2531C879.256 48.7775 879.546 50.4471 879.546 52.2619C879.546 55.5286 878.53 58.2508 876.497 60.4286C874.464 62.6064 871.452 63.6953 867.459 63.6953C863.394 63.6953 860.345 62.6064 858.313 60.4286C856.353 58.2508 855.373 55.5286 855.373 52.2619ZM1048.54 143.402C1048.54 148.556 1048.14 153.528 1047.34 158.32C1046.62 163.038 1045.53 167.466 1044.08 171.604C1042.12 177.048 1039.54 181.948 1036.35 186.304C1033.22 190.587 1029.45 194.144 1025.02 196.975C1021.83 198.935 1018.31 200.459 1014.46 201.548C1010.68 202.637 1006.58 203.182 1002.15 203.182C997.073 203.182 992.427 202.565 988.217 201.331C984.079 200.097 980.341 198.318 977.001 195.995C975.404 194.834 973.88 193.563 972.428 192.184C970.976 190.805 969.597 189.28 968.29 187.611L967.31 201.004H948.799V33.7509H968.944V95.8174C970.613 93.7122 972.464 91.8248 974.497 90.1552C976.529 88.413 978.707 86.9248 981.03 85.6908C983.934 84.1663 987.128 83.0049 990.612 82.2063C994.097 81.4078 997.872 81.0086 1001.94 81.0086C1007.02 81.0086 1011.7 81.6982 1015.98 83.0774C1020.27 84.4567 1024.15 86.3804 1027.63 88.8485C1030.76 91.1715 1033.55 94.0026 1036.02 97.3419C1038.49 100.609 1040.66 104.274 1042.55 108.34C1044.51 112.913 1046 117.994 1047.02 123.584C1048.03 129.101 1048.54 134.945 1048.54 141.115V143.402ZM1028.4 141.115C1028.4 137.413 1028.14 133.82 1027.63 130.335C1027.2 126.778 1026.51 123.439 1025.57 120.317C1024.26 116.47 1022.55 112.949 1020.45 109.755C1018.34 106.561 1015.77 104.057 1012.72 102.242C1010.61 100.935 1008.25 99.9189 1005.64 99.193C1003.03 98.467 1000.12 98.1041 996.928 98.1041C993.444 98.1041 990.249 98.5759 987.346 99.5196C984.442 100.391 981.865 101.625 979.615 103.222C977.292 104.891 975.223 106.851 973.408 109.102C971.666 111.28 970.178 113.675 968.944 116.288V167.793C970.25 170.406 971.775 172.838 973.517 175.088C975.332 177.266 977.401 179.19 979.724 180.859C982.047 182.529 984.66 183.836 987.564 184.779C990.467 185.651 993.661 186.086 997.146 186.086C1000.49 186.086 1003.53 185.687 1006.29 184.888C1009.05 184.017 1011.52 182.783 1013.7 181.186C1016.6 179.154 1019.03 176.577 1020.99 173.455C1022.95 170.334 1024.51 166.849 1025.67 163.002C1026.62 160.098 1027.31 156.977 1027.74 153.637C1028.18 150.298 1028.4 146.886 1028.4 143.402V141.115ZM1159.83 81.0086C1163.53 81.0086 1167.38 81.2626 1171.37 81.7708C1175.43 82.2789 1178.48 82.9686 1180.51 83.8397L1177.79 103.549C1173.87 102.677 1170.13 102.06 1166.58 101.697C1163.09 101.262 1159.43 101.044 1155.58 101.044C1150.64 101.044 1146.18 101.661 1142.19 102.895C1138.19 104.057 1134.71 105.799 1131.73 108.122C1129.05 110.154 1126.69 112.659 1124.65 115.635C1122.69 118.539 1121.06 121.806 1119.75 125.435V201.004H1099.5V83.1863H1118.67L1119.54 98.9752L1119.65 101.915C1124.44 95.4545 1130.17 90.373 1136.85 86.6708C1143.6 82.896 1151.26 81.0086 1159.83 81.0086ZM1293.98 201.004C1293.18 199.479 1292.52 197.592 1292.02 195.342C1291.58 193.019 1291.25 190.623 1291.04 188.155C1289 190.188 1286.72 192.111 1284.18 193.926C1281.71 195.741 1278.99 197.338 1276.01 198.717C1272.96 200.097 1269.73 201.185 1266.32 201.984C1262.91 202.782 1259.28 203.182 1255.43 203.182C1249.19 203.182 1243.52 202.274 1238.44 200.459C1233.43 198.645 1229.19 196.177 1225.7 193.055C1222.15 190.006 1219.39 186.377 1217.43 182.166C1215.54 177.883 1214.6 173.274 1214.6 168.337C1214.6 161.877 1215.87 156.214 1218.41 151.351C1221.02 146.487 1224.69 142.422 1229.41 139.155C1234.12 135.961 1239.79 133.566 1246.39 131.968C1253.07 130.371 1260.51 129.573 1268.71 129.573H1290.71V120.317C1290.71 116.76 1290.06 113.566 1288.75 110.735C1287.44 107.904 1285.59 105.472 1283.2 103.44C1280.8 101.48 1277.86 99.9552 1274.38 98.8663C1270.96 97.7774 1267.12 97.233 1262.83 97.233C1258.84 97.233 1255.25 97.7411 1252.05 98.7574C1248.93 99.7737 1246.28 101.117 1244.11 102.786C1241.93 104.456 1240.22 106.452 1238.99 108.775C1237.83 111.026 1237.25 113.385 1237.25 115.853H1216.99C1217.06 111.57 1218.15 107.36 1220.26 103.222C1222.44 99.0841 1225.56 95.3456 1229.62 92.0063C1233.62 88.7397 1238.48 86.09 1244.21 84.0574C1250.02 82.0249 1256.59 81.0086 1263.92 81.0086C1270.6 81.0086 1276.81 81.8434 1282.54 83.513C1288.28 85.11 1293.25 87.5419 1297.46 90.8085C1301.6 94.1478 1304.87 98.2856 1307.26 103.222C1309.66 108.158 1310.85 113.929 1310.85 120.535V175.306C1310.85 179.226 1311.22 183.4 1311.94 187.828C1312.67 192.184 1313.69 195.995 1314.99 199.262V201.004H1293.98ZM1258.37 185.651C1262.29 185.651 1265.96 185.142 1269.37 184.126C1272.78 183.11 1275.9 181.767 1278.73 180.097C1281.49 178.428 1283.89 176.54 1285.92 174.435C1287.95 172.257 1289.55 170.007 1290.71 167.684V143.837H1271.98C1265.01 143.837 1258.91 144.454 1253.69 145.688C1248.53 146.85 1244.43 148.665 1241.38 151.133C1239.21 152.875 1237.54 154.944 1236.37 157.34C1235.29 159.735 1234.74 162.457 1234.74 165.506C1234.74 168.41 1235.21 171.096 1236.16 173.564C1237.17 176.032 1238.66 178.137 1240.62 179.879C1242.58 181.694 1245.05 183.11 1248.03 184.126C1251 185.142 1254.45 185.651 1258.37 185.651Z" fill="#00ADB5"/>
<path d="M0 0H181.912V180.361H0V0Z" fill="#393E46"/>
<path d="M0 81.7154L92.9999 0V180.941L0 262.656V81.7154Z" fill="#00ADB5"/>
</g>
<defs>
<clipPath id="clip0_295_24">
<rect width="1332.08" height="262.656" fill="white"/>
</clipPath>
</defs>
</svg>
